<svg width="28" height="28" viewBox="0 0 28 28" fill="none" xmlns="http://www.w3.org/2000/svg">
<path d="M14 0.196014C6.38805 0.196014 0.196045 6.38802 0.196045 14C0.196045 21.612 6.38805 27.804 14 27.804C21.612 27.804 27.804 21.612 27.804 14C27.804 6.38802 21.612 0.196014 14 0.196014ZM14 25.504C7.65605 25.504 2.49604 20.344 2.49604 14C2.49604 7.65602 7.65605 2.49601 14 2.49601C20.344 2.49601 25.504 7.65602 25.504 14C25.504 20.344 20.344 25.504 14 25.504Z" fill="url(#paint0_linear_13_17)"/>
<path d="M11.936 6.86002C11.488 6.41202 10.76 6.41202 10.308 6.86002C9.86005 7.30802 9.86005 8.03602 10.308 8.48802L15.824 14L10.312 19.512C9.86405 19.96 9.86405 20.688 10.312 21.14C10.536 21.364 10.832 21.476 11.124 21.476C11.42 21.476 11.712 21.364 11.936 21.14L18.264 14.812C18.712 14.364 18.712 13.636 18.264 13.184L11.936 6.86002Z" fill="url(#paint1_linear_13_17)"/>
<defs>
<linearGradient id="paint0_linear_13_17" x1="0.195245" y1="14" x2="27.8048" y2="14" gradientUnits="userSpaceOnUse">
<stop stop-color="#F15A24"/>
<stop offset="1" stop-color="#F7931E"/>
</linearGradient>
<linearGradient id="paint1_linear_13_17" x1="9.97365" y1="14" x2="18.6016" y2="14" gradientUnits="userSpaceOnUse">
<stop stop-color="#F15A24"/>
<stop offset="1" stop-color="#F7931E"/>
</linearGradient>
</defs>
</svg>
